<svg width="193" height="6" viewBox="0 0 193 6" fill="none" xmlns="http://www.w3.org/2000/svg">
<path opacity="0.4" fill-rule="evenodd" clip-rule="evenodd" d="M38.6216 4.93956C52.7921 4.93956 65.9759 3.33062 77 0.567139L77.2431 1.53713C66.1303 4.32286 52.864 5.93956 38.6216 5.93956C24.3792 5.93956 11.1129 4.32286 0 1.53713L0.243153 0.567139C11.2673 3.33062 24.451 4.93956 38.6216 4.93956Z" fill="white"/>
<path opacity="0.4" fill-rule="evenodd" clip-rule="evenodd" d="M153.895 4.93956C168.066 4.93956 181.249 3.33062 192.273 0.567139L192.517 1.53713C181.404 4.32286 168.137 5.93956 153.895 5.93956C139.653 5.93956 126.386 4.32286 115.273 1.53713L115.517 0.567139C126.541 3.33062 139.724 4.93956 153.895 4.93956Z" fill="white"/>
</svg>
