<?xml version="1.0" encoding="utf-8"?>
<!-- Generator: Adobe Illustrator 23.0.1, SVG Export Plug-In . SVG Version: 6.00 Build 0)  -->
<svg version="1.1" id="Layer_1" xmlns="http://www.w3.org/2000/svg" xmlns:xlink="http://www.w3.org/1999/xlink" x="0px" y="0px"
	 viewBox="0 0 100 100" style="enable-background:new 0 0 100 100;" xml:space="preserve">
<style type="text/css">
	.st0{display:none;}
	.st1{display:inline;fill:#FFFFFF;stroke:#000000;stroke-miterlimit:10;}
	.st2{fill:#FFFFFF;}
</style>
<g class="st0">
	<path class="st1" d="M34.79,19.42c-2.52,0-4.55,2.04-4.55,4.55V76.2c0,2.52,2.04,4.56,4.55,4.56h30.24c2.52,0,4.56-2.04,4.56-4.56
		V32.16L56.85,19.42H34.79z"/>
	<path class="st1" d="M62.4,31.16h6.78c0.52,0,0.78-0.63,0.41-1L58.85,19.41c-0.37-0.37-1-0.11-1,0.41v6.78
		C57.85,29.12,59.89,31.16,62.4,31.16z"/>
</g>
<g>
	<g>
		<path class="st2" d="M53.41,68.29l18.68-28.61c1.77-2.71-0.17-6.3-3.41-6.3H31.32c-3.23,0-5.18,3.59-3.41,6.3l18.68,28.61
			C48.2,70.75,51.8,70.75,53.41,68.29z"/>
	</g>
</g>
</svg>
