<?xml version="1.0" standalone="no"?>
<!DOCTYPE svg PUBLIC "-//W3C//DTD SVG 20010904//EN"
 "http://www.w3.org/TR/2001/REC-SVG-20010904/DTD/svg10.dtd">
<svg version="1.0" xmlns="http://www.w3.org/2000/svg"
 width="1182.000000pt" height="1182.000000pt" viewBox="0 0 1182.000000 1182.000000"
 preserveAspectRatio="xMidYMid meet">
<metadata>
Created by potrace 1.11, written by Peter Selinger 2001-2013
</metadata>
<g transform="translate(0.000000,1182.000000) scale(0.100000,-0.100000)"
fill="#000000" stroke="none">
<path d="M5450 9703 c-908 -68 -1665 -476 -2092 -1128 -225 -343 -321 -685
-321 -1140 -1 -206 11 -317 50 -495 132 -604 604 -1105 1317 -1397 341 -140
877 -295 1595 -462 492 -115 822 -257 1000 -430 163 -159 157 -462 -13 -635
-138 -142 -362 -235 -648 -271 -360 -44 -670 -22 -945 70 -276 92 -474 248
-573 449 -17 34 -41 106 -55 160 -14 55 -27 101 -28 103 -12 12 -1914 489
-1921 482 -18 -16 -12 -510 8 -649 51 -372 151 -658 331 -950 436 -704 1196
-1138 2220 -1270 548 -70 1185 -36 1687 91 414 104 786 276 1088 502 117 87
309 273 400 387 250 314 414 721 459 1142 16 141 13 428 -4 565 -28 221 -98
452 -195 643 -228 451 -662 818 -1242 1049 -187 74 -341 120 -718 215 -1047
264 -1448 380 -1557 453 -133 88 -213 239 -213 403 1 219 156 414 371 465 55
13 238 15 1350 15 l1287 0 6 183 c4 100 8 469 9 820 l2 637 -1305 -2 c-718 -1
-1325 -3 -1350 -5z"/>
</g>
</svg>
